<?xml version="1.0" encoding="UTF-8" standalone="no"?>
<!-- Created with Inkscape (http://www.inkscape.org/) -->

<svg
   width="104.21671mm"
   height="110.92554mm"
   viewBox="0 0 104.21671 110.92554"
   version="1.1"
   id="svg5"
   inkscape:version="1.1 (c68e22c387, 2021-05-23)"
   sodipodi:docname="navbarLeftLogo.svg"
   xmlns:inkscape="http://www.inkscape.org/namespaces/inkscape"
   xmlns:sodipodi="http://sodipodi.sourceforge.net/DTD/sodipodi-0.dtd"
   xmlns="http://www.w3.org/2000/svg"
   xmlns:svg="http://www.w3.org/2000/svg">
  <sodipodi:namedview
     id="namedview7"
     pagecolor="#ffffff"
     bordercolor="#666666"
     borderopacity="1.0"
     inkscape:pageshadow="2"
     inkscape:pageopacity="0.0"
     inkscape:pagecheckerboard="0"
     inkscape:document-units="mm"
     showgrid="false"
     inkscape:zoom="0.77771465"
     inkscape:cx="-12.215277"
     inkscape:cy="557.40239"
     inkscape:window-width="3840"
     inkscape:window-height="2081"
     inkscape:window-x="-9"
     inkscape:window-y="-9"
     inkscape:window-maximized="1"
     inkscape:current-layer="layer1"
     width="100mm"
     fit-margin-top="0"
     fit-margin-left="0"
     fit-margin-right="0"
     fit-margin-bottom="0" />
  <defs
     id="defs2" />
  <g
     inkscape:label="Layer 1"
     inkscape:groupmode="layer"
     id="layer1"
     transform="translate(-0.47235508,-0.851058)">
    <g
       id="g4042"
       transform="translate(-27.707946,-60.707946)"
       style="fill:#212529;fill-opacity:1">
      <g
         id="g21"
         transform="translate(-21.133382,-20.812635)"
         style="fill:#212529;fill-opacity:1">
        <path
           style="fill:#212529;fill-opacity:1;stroke-width:0.264583"
           d="m 127.84172,171.66854 c 1.5e-4,-3.78354 0.0373,-5.29456 0.0826,-3.35781 0.0453,1.93673 0.0451,5.03236 -2.7e-4,6.87916 -0.0454,1.8468 -0.0825,0.2622 -0.0823,-3.52135 z m 8.99465,-0.52916 c 1.8e-4,-3.4925 0.0378,-4.88466 0.0837,-3.09368 0.0458,1.79097 0.0457,4.64847 -2.7e-4,6.35 -0.0461,1.70152 -0.0836,0.23618 -0.0834,-3.25632 z m -23.66202,1.61989 c 0,-0.0549 0.20836,-0.2633 0.46302,-0.46302 0.41965,-0.3291 0.42901,-0.31975 0.0999,0.0999 -0.34564,0.44073 -0.56292,0.58089 -0.56292,0.36312 z m 10.91464,-20.14073 c 0.003,-0.58208 0.0571,-0.78905 0.12041,-0.45993 0.0633,0.32912 0.0609,0.80537 -0.005,1.05833 -0.0662,0.25297 -0.11801,-0.0163 -0.11507,-0.5984 z m -39.647068,-2.05052 -0.504028,-0.59531 0.595312,0.50403 c 0.559446,0.47366 0.715762,0.6866 0.504029,0.6866 -0.05021,0 -0.318098,-0.26789 -0.595313,-0.59532 z m -5.907098,-26.28194 c 0.0127,-0.30823 0.07539,-0.37092 0.159851,-0.15985 0.07643,0.19099 0.06703,0.4192 -0.02088,0.50712 -0.08792,0.0879 -0.150453,-0.0684 -0.138964,-0.34727 z m 0.02089,-3.81441 c 0,-0.3638 0.06005,-0.51263 0.133454,-0.33073 0.0734,0.1819 0.0734,0.47956 0,0.66146 -0.0734,0.1819 -0.133454,0.0331 -0.133454,-0.33073 z m 35.412386,-4.10104 c 0.34178,-0.3638 0.68094,-0.66146 0.7537,-0.66146 0.0728,0 -0.14734,0.29766 -0.48911,0.66146 -0.34178,0.3638 -0.68094,0.66146 -0.7537,0.66146 -0.0728,0 0.14734,-0.29766 0.48911,-0.66146 z m 10.12623,-24.209377 c 0,-0.654844 0.0516,-0.922735 0.11467,-0.595313 0.0631,0.327422 0.0631,0.863203 0,1.190625 -0.0631,0.327422 -0.11467,0.05953 -0.11467,-0.595312 z"
           id="path35" />
        <path
           style="fill:#212529;fill-opacity:1;stroke-width:0.264583"
           d="m 49.317463,180.59823 c -0.06794,-0.10914 0.788232,-0.16614 1.902614,-0.12668 3.554695,0.1259 3.962142,0.23485 1.049576,0.28064 -1.555761,0.0244 -2.884246,-0.0448 -2.95219,-0.15396 z m 11.932409,0.002 c 1.055026,-0.0502 2.781432,-0.0502 3.836458,0 1.055027,0.0502 0.191823,0.0913 -1.918229,0.0913 -2.110052,0 -2.973255,-0.0411 -1.918229,-0.0913 z m 49.091218,1e-5 c 0.98831,-0.0511 2.53613,-0.0507 3.43958,7.9e-4 0.90345,0.0515 0.0948,0.0933 -1.79694,0.0928 -1.89177,-5.3e-4 -2.63096,-0.0426 -1.64264,-0.0936 z m 9.3817,-1e-5 c 1.05503,-0.0502 2.78143,-0.0502 3.83646,0 1.05503,0.0502 0.19182,0.0913 -1.91823,0.0913 -2.11005,0 -2.97325,-0.0411 -1.91823,-0.0913 z m 7.81621,1e-5 c 0.98832,-0.0511 2.53613,-0.0507 3.43959,7.9e-4 0.90345,0.0515 0.0948,0.0933 -1.79694,0.0928 -1.89178,-5.3e-4 -2.63097,-0.0426 -1.64265,-0.0936 z m 8.32338,5.3e-4 c 0.9095,-0.0517 2.39778,-0.0517 3.30729,0 0.9095,0.0517 0.16536,0.0939 -1.65365,0.0939 -1.81901,0 -2.56315,-0.0423 -1.65364,-0.0939 z m 2.2948,-8.66749 c 2.2e-4,-3.05594 0.0387,-4.26986 0.0856,-2.6976 0.0469,1.57226 0.0467,4.07257 -2.7e-4,5.55625 -0.0471,1.48368 -0.0854,0.19729 -0.0852,-2.85865 z m -38.542723,-8.50961 c 0.181901,-0.0734 0.479553,-0.0734 0.661463,0 0.1819,0.0734 0.0331,0.13346 -0.330734,0.13346 -0.363802,0 -0.51263,-0.0601 -0.330729,-0.13346 z m -38.858948,-0.69406 c 0.114882,-0.1143 1.508387,-0.17321 3.096672,-0.13091 l 2.887795,0.0769 -3.096672,0.13091 c -1.703168,0.072 -3.002678,0.0374 -2.887795,-0.0769 z m -9.295221,-0.12091 c 1.055026,-0.0502 2.781433,-0.0502 3.836459,0 1.055026,0.0502 0.191823,0.0913 -1.91823,0.0913 -2.110052,0 -2.973255,-0.0411 -1.918229,-0.0913 z m 58.605212,2.5e-4 c 0.98226,-0.0509 2.58961,-0.0509 3.57187,0 0.98227,0.0509 0.1786,0.0926 -1.78593,0.0926 -1.96453,0 -2.76821,-0.0417 -1.78594,-0.0926 z m 9.39271,2.7e-4 c 0.9095,-0.0517 2.39778,-0.0517 3.30729,0 0.90951,0.0517 0.16536,0.0939 -1.65365,0.0939 -1.81901,0 -2.56315,-0.0423 -1.65364,-0.0939 z m 8.08079,-5.3e-4 c 0.98832,-0.0511 2.53613,-0.0507 3.43959,7.9e-4 0.90345,0.0515 0.0948,0.0933 -1.79694,0.0928 -1.89178,-5.3e-4 -2.63097,-0.0426 -1.64265,-0.0937 z m 7.93448,0.002 c 0.69562,-0.0547 1.76718,-0.054 2.38125,0.002 0.61408,0.0555 0.0449,0.10023 -1.26475,0.0994 -1.30969,-7.9e-4 -1.81211,-0.0462 -1.1165,-0.10088 z m 13.35348,-0.001 c 0.9095,-0.0517 2.39779,-0.0517 3.30729,0 0.90951,0.0517 0.16537,0.0939 -1.65364,0.0939 -1.81902,0 -2.56316,-0.0423 -1.65365,-0.0939 z m -16.81561,-40.15303 c 0.005,-0.43656 0.0647,-0.58312 0.13177,-0.32569 0.0671,0.25743 0.0627,0.61462 -0.01,0.79375 -0.0725,0.17913 -0.12736,-0.0315 -0.12197,-0.46806 z M 83.541019,95.236357 c 0,-0.05494 0.208359,-0.263301 0.463021,-0.463021 0.419645,-0.329108 0.429003,-0.319749 0.0999,0.0999 -0.345644,0.44073 -0.562917,0.580887 -0.562917,0.363125 z"
           id="path33" />
        <path
           style="fill:#212529;fill-opacity:1;stroke-width:0.264583"
           d="m 149.79618,170.87479 c 2.6e-4,-2.61937 0.0399,-3.65515 0.088,-2.30172 0.0481,1.35343 0.0479,3.49656 -5.3e-4,4.7625 -0.0484,1.26595 -0.0878,0.1586 -0.0875,-2.46078 z m -69.463912,-5.88697 c -0.329107,-0.41965 -0.319749,-0.42901 0.0999,-0.0999 0.254661,0.19972 0.46302,0.40808 0.46302,0.46302 0,0.21776 -0.217273,0.0776 -0.562917,-0.36312 z m 6.964498,-42.53178 c 0.0054,-0.43656 0.06469,-0.58312 0.131773,-0.32569 0.06708,0.25743 0.06267,0.61462 -0.0098,0.79375 -0.07248,0.17913 -0.127362,-0.0315 -0.12197,-0.46806 z"
           id="path31" />
        <path
           style="fill:#212529;fill-opacity:1;stroke-width:0.264583"
           d="m 94.653519,180.95727 c 0,-0.0572 0.184777,-0.17489 0.410618,-0.26156 0.235458,-0.0904 0.341662,-0.046 0.248967,0.10399 -0.155379,0.25141 -0.659585,0.37186 -0.659585,0.15757 z m 15.988791,-9.42102 c 0,-3.41974 0.0377,-4.81872 0.0838,-3.10885 0.0461,1.70987 0.0461,4.50784 0,6.21771 -0.0461,1.70987 -0.0838,0.31088 -0.0838,-3.10886 z m -7.23665,5.40191 c 0.0127,-0.30822 0.0754,-0.37092 0.15985,-0.15985 0.0764,0.19099 0.067,0.4192 -0.0209,0.50712 -0.0879,0.0879 -0.15045,-0.0683 -0.13896,-0.34727 z m -33.306811,-5.26962 c 0.0054,-0.43656 0.06469,-0.58312 0.131773,-0.32569 0.06708,0.25743 0.06267,0.61462 -0.0098,0.79375 -0.07248,0.17913 -0.127363,-0.0315 -0.12197,-0.46806 z m 37.626411,-36.97552 -0.50403,-0.59531 0.59531,0.50403 c 0.55945,0.47366 0.71576,0.6866 0.50403,0.6866 -0.0502,0 -0.3181,-0.26789 -0.59531,-0.59532 z m 44.62832,-10.93611 c 0.0127,-0.30822 0.0754,-0.37092 0.15985,-0.15985 0.0764,0.19099 0.067,0.4192 -0.0209,0.50712 -0.0879,0.0879 -0.15045,-0.0683 -0.13896,-0.34727 z m -5.50147,-1.30087 c 0.002,-0.7276 0.0534,-0.99385 0.11419,-0.59167 0.0608,0.40218 0.0592,0.99749 -0.004,1.32292 -0.0628,0.32542 -0.11256,-0.004 -0.11057,-0.73125 z m 5.50147,-1.34496 c 0.0127,-0.30823 0.0754,-0.37092 0.15985,-0.15985 0.0764,0.19099 0.067,0.4192 -0.0209,0.50712 -0.0879,0.0879 -0.15045,-0.0684 -0.13896,-0.34727 z M 71.336435,109.42532 c -0.329108,-0.41965 -0.319749,-0.42901 0.0999,-0.0999 0.254661,0.19972 0.463021,0.40808 0.463021,0.46302 0,0.21776 -0.217274,0.0776 -0.562917,-0.36312 z"
           id="path29" />
        <path
           style="fill:#212529;fill-opacity:1;stroke-width:0.264583"
           d="m 130.2224,171.66854 c -1.6e-4,-3.63802 0.0371,-5.163 0.0828,-3.38884 0.0457,1.77416 0.0458,4.75073 2.6e-4,6.61459 -0.0455,1.86386 -0.0829,0.41228 -0.0831,-3.22575 z m -47.697939,-0.13229 c 0,-0.3638 0.06005,-0.51263 0.133453,-0.33073 0.0734,0.1819 0.0734,0.47956 0,0.66146 -0.0734,0.1819 -0.133453,0.0331 -0.133453,-0.33073 z m 33.560309,-3.30729 c 0.49365,-0.50932 0.95709,-0.92604 1.02985,-0.92604 0.0728,0 -0.27161,0.41672 -0.76527,0.92604 -0.49365,0.50932 -0.95708,0.92604 -1.02984,0.92604 -0.0728,0 0.27161,-0.41672 0.76526,-0.92604 z m 4.23333,-2.87802 c 0,-0.0549 0.20836,-0.2633 0.46302,-0.46302 0.41965,-0.32911 0.42901,-0.31975 0.0999,0.0999 -0.34564,0.44072 -0.56292,0.58088 -0.56292,0.36312 z m -62.243228,-8.8282 c 1.200547,-0.049 3.165078,-0.049 4.365625,0 1.200547,0.049 0.218281,0.0891 -2.182813,0.0891 -2.401093,0 -3.383359,-0.0401 -2.182812,-0.0891 z m 94.324538,-34.0667 c 0.003,-0.58208 0.0571,-0.78905 0.12041,-0.45993 0.0633,0.32912 0.0609,0.80537 -0.005,1.05833 -0.0662,0.25297 -0.118,-0.0163 -0.11506,-0.5984 z m -34.33026,-2.24895 c 0.56838,-0.58209 1.09296,-1.05834 1.16572,-1.05834 0.0728,0 -0.33275,0.47625 -0.90114,1.05834 -0.56839,0.58208 -1.09297,1.05833 -1.16573,1.05833 -0.0728,0 0.33276,-0.47625 0.90115,-1.05833 z m 11.53026,-26.612677 c 0.0127,-0.308226 0.0754,-0.370919 0.15985,-0.159853 0.0764,0.190995 0.067,0.419198 -0.0209,0.507119 -0.0879,0.08792 -0.15045,-0.06835 -0.13896,-0.347266 z"
           id="path27" />
        <path
           style="fill:#212529;fill-opacity:1;stroke-width:0.264583"
           d="m 125.8038,180.23467 c 0.17948,-0.18082 0.39297,-0.26211 0.47443,-0.18065 0.0815,0.0815 -0.0654,0.22941 -0.32632,0.32876 -0.37708,0.14359 -0.40747,0.1132 -0.14811,-0.14811 z m -43.279339,-7.64008 c 0,-0.36381 0.06005,-0.51263 0.133453,-0.33073 0.0734,0.1819 0.0734,0.47955 0,0.66146 -0.0734,0.1819 -0.133453,0.0331 -0.133453,-0.33073 z m 3.184805,-0.92605 c 0.0054,-0.43656 0.06469,-0.58312 0.131773,-0.32569 0.06708,0.25743 0.06267,0.61462 -0.0098,0.79375 -0.07248,0.17913 -0.127362,-0.0315 -0.12197,-0.46806 z m -3.205692,-1.08038 c 0.0127,-0.30822 0.07539,-0.37092 0.159851,-0.15985 0.07643,0.19099 0.06703,0.4192 -0.02088,0.50712 -0.08792,0.0879 -0.150452,-0.0684 -0.138964,-0.34727 z m 35.962446,-3.41753 c 0.34178,-0.3638 0.68094,-0.66146 0.7537,-0.66146 0.0728,0 -0.14734,0.29766 -0.48912,0.66146 -0.34177,0.3638 -0.68094,0.66146 -0.7537,0.66146 -0.0728,0 0.14734,-0.29766 0.48912,-0.66146 z m -63.301565,-5.09288 c 2.801276,-0.0429 7.385183,-0.0429 10.186459,0 2.801276,0.0428 0.509323,0.0779 -5.09323,0.0779 -5.602552,0 -7.894505,-0.0351 -5.093229,-0.0779 z m 56.372785,0.0173 c 0.191,-0.0764 0.4192,-0.067 0.50712,0.0209 0.0879,0.0879 -0.0683,0.15045 -0.34726,0.13896 -0.30823,-0.0127 -0.37092,-0.0754 -0.15986,-0.15985 z m 1.83555,0.006 c 0.1819,-0.0734 0.47956,-0.0734 0.66146,0 0.1819,0.0734 0.0331,0.13345 -0.33073,0.13345 -0.3638,0 -0.51263,-0.0601 -0.33073,-0.13345 z m 26.52448,-10.75548 c 0,-0.0455 0.38695,-0.43249 0.8599,-0.8599 l 0.85989,-0.7771 -0.7771,0.85989 c -0.72437,0.80155 -0.94269,0.98152 -0.94269,0.77711 z M 72.163935,134.62688 c 0.341776,-0.3638 0.68094,-0.66146 0.7537,-0.66146 0.07276,0 -0.147341,0.29766 -0.489117,0.66146 -0.341775,0.3638 -0.680939,0.66146 -0.7537,0.66146 -0.07276,0 0.147341,-0.29766 0.489117,-0.66146 z m -6.085417,-6.61459 c 0.341776,-0.3638 0.68094,-0.66145 0.7537,-0.66145 0.07276,0 -0.147341,0.29765 -0.489117,0.66145 -0.341775,0.36381 -0.680939,0.66146 -0.7537,0.66146 -0.07276,0 0.147341,-0.29765 0.489117,-0.66146 z"
           id="path25" />
        <path
           style="fill:#212529;fill-opacity:1;stroke-width:0.264583"
           d="m 74.605044,180.76701 c -4.006302,-0.66721 -6.988074,-3.73858 -7.45237,-7.67629 -0.73796,-6.25872 3.056919,-10.61694 9.244595,-10.61694 2.954663,0 4.808537,0.68875 6.630426,2.46332 2.040602,1.98761 2.497945,3.22076 2.496511,6.73144 -0.0011,2.50866 -0.08568,3.08062 -0.61327,4.14341 -0.790503,1.5924 -2.434209,3.25864 -3.981392,4.03598 -0.982744,0.49375 -4.337378,1.31693 -4.818531,1.18239 -0.06084,-0.017 -0.738526,-0.1355 -1.505969,-0.26331 z m 4.928061,-1.63281 c 0.601139,-0.39781 1.393725,-1.17776 1.761305,-1.73321 0.913532,-1.38044 1.542407,-4.48676 1.349081,-6.66379 -0.438285,-4.93556 -2.520188,-7.40303 -6.246222,-7.40303 -4.029819,0 -6.195995,2.91377 -6.195995,8.33437 0,4.14279 1.098945,6.51362 3.610348,7.78887 1.629175,0.82727 4.202671,0.68189 5.721483,-0.32321 z m 19.221456,1.4868 c -3.002277,-0.70954 -3.098662,-0.7169 -3.356314,-0.2565 -0.458184,0.81873 -0.680931,0.42593 -0.992751,-1.75064 -0.171992,-1.20055 -0.367411,-2.45071 -0.43426,-2.77813 -0.195004,-0.95508 0.360272,-0.6868 0.943115,0.45567 1.322702,2.59271 3.38119,3.90663 5.709299,3.64422 2.14904,-0.24223 3.46813,-2.17067 2.76105,-4.0365 -0.46418,-1.22484 -1.2277,-1.88918 -4.298325,-3.73996 -1.599986,-0.96438 -3.150338,-2.1164 -3.545639,-2.63467 -1.614329,-2.11649 -0.833829,-5.38341 1.584981,-6.63423 0.993931,-0.51398 3.709543,-0.50029 5.167843,0.026 1.46723,0.52957 1.49749,0.52764 2.11413,-0.13424 0.48623,-0.52191 0.52217,-0.52553 0.65717,-0.0661 0.21198,0.72133 0.52823,5.53577 0.353,5.37389 -0.0829,-0.0765 -0.49005,-0.78888 -0.9049,-1.58298 -0.96054,-1.83869 -2.46421,-2.94089 -4.21844,-3.09215 -2.281432,-0.19671 -3.545114,1.09353 -3.147395,3.21356 0.190968,1.01795 1.071224,1.80555 3.856395,3.45045 0.94589,0.55864 2.27648,1.41641 2.95687,1.90617 5.05141,3.63608 1.1342,10.13449 -5.205829,8.63614 z m 45.742949,-7.08649 c -3.3305,-3.99418 -6.14474,-7.2684 -6.25388,-7.27604 -0.32843,-0.023 -0.23512,11.44359 0.10096,12.40769 0.21669,0.62158 0.60046,0.99282 1.38906,1.34371 l 1.08966,0.48484 -3.28524,0.0187 c -3.26324,0.0186 -3.67774,-0.10851 -2.06664,-0.63355 0.46209,-0.15059 0.99035,-0.57146 1.1739,-0.93526 0.47402,-0.93953 0.48366,-13.9962 0.0108,-14.62884 -0.1819,-0.24337 -0.80698,-0.6781 -1.38906,-0.96607 l -1.05833,-0.52359 2.38249,-0.0105 2.3825,-0.0106 5.29042,6.33502 c 2.90973,3.48426 5.39012,6.34176 5.51198,6.35 0.12186,0.008 0.18139,-2.47303 0.13229,-5.51393 -0.0806,-4.99219 -0.1382,-5.58294 -0.59329,-6.08542 -0.27722,-0.30606 -0.7762,-0.55649 -1.10887,-0.55649 -0.33266,0 -0.67842,-0.11906 -0.76835,-0.26458 -0.10558,-0.17083 0.97259,-0.26459 3.04271,-0.26459 2.07011,0 3.14828,0.0938 3.0427,0.26459 -0.0899,0.14552 -0.43569,0.26458 -0.76835,0.26458 -0.33266,0 -0.83165,0.25045 -1.10887,0.55655 -0.46899,0.51786 -0.50938,1.12479 -0.581,8.73125 -0.0423,4.49608 -0.17489,8.1747 -0.29455,8.1747 -0.11967,0 -2.94253,-3.26797 -6.27303,-7.26216 z m -94.955451,6.73299 c 0.08994,-0.14552 0.340774,-0.26458 0.557415,-0.26458 0.216642,0 0.70041,-0.32742 1.07504,-0.7276 1.224405,-1.30792 5.643587,-7.15568 5.643587,-7.46798 0,-0.27904 -3.957377,-6.39363 -4.846726,-7.48873 -0.210276,-0.25893 -0.842894,-0.70067 -1.405818,-0.98165 l -1.023498,-0.51087 3.96875,0.0172 c 3.553508,0.0154 3.85802,0.0513 2.910417,0.34274 -0.709832,0.21835 -1.084043,0.49789 -1.136409,0.84892 -0.04427,0.29677 0.650647,1.63631 1.604989,3.0938 l 1.683067,2.57043 1.729058,-2.19032 c 2.655967,-3.3645 2.79296,-3.8655 1.197221,-4.37838 -0.686866,-0.22076 -0.276373,-0.27575 2.198116,-0.29442 2.053336,-0.0155 2.913661,0.0604 2.645833,0.23352 -0.218281,0.14107 -0.580445,0.25831 -0.804807,0.26054 -0.550973,0.005 -2.150356,1.72919 -4.456062,4.80247 l -1.912715,2.54948 2.859188,4.32969 c 2.133272,3.23043 3.082822,4.44137 3.740018,4.76955 0.484457,0.24193 0.950785,0.50982 1.036285,0.59532 0.0855,0.0855 -1.561031,0.14639 -3.658954,0.13532 -3.393033,-0.0179 -3.712113,-0.0569 -2.88837,-0.35297 1.434,-0.51543 1.336104,-1.12403 -0.707514,-4.39853 -0.993315,-1.59159 -1.891139,-2.86572 -1.995165,-2.83139 -0.327456,0.10804 -4.441071,5.80517 -4.441071,6.15065 0,0.42335 0.460707,0.78154 1.455209,1.13138 0.647779,0.22787 0.243487,0.28306 -2.198428,0.30011 -1.932461,0.0135 -2.934264,-0.0728 -2.828656,-0.2437 z m 59.663541,-0.10844 c 1.51822,-0.54556 1.5797,-0.87602 1.5797,-8.49052 0,-7.63811 -0.0659,-7.99081 -1.5797,-8.44936 -0.88777,-0.26892 -0.85224,-0.28377 0.8599,-0.35944 0.98226,-0.0434 2.58961,-0.0392 3.57187,0.009 1.5677,0.0775 1.67971,0.11559 0.91665,0.31162 -0.47811,0.12283 -0.98413,0.4379 -1.12448,0.70015 -0.25336,0.47342 -0.37222,7.12621 -0.12732,7.12621 0.67022,0 6.22213,-6.17353 6.22213,-6.91879 0,-0.29707 -0.33646,-0.63517 -0.85989,-0.86408 -0.8059,-0.35244 -0.65638,-0.37741 2.38125,-0.39764 1.78263,-0.0119 3.24114,0.0334 3.24114,0.10052 0,0.0671 -0.50601,0.25521 -1.12448,0.41792 -0.92196,0.24256 -1.68436,0.86677 -4.23333,3.46604 -1.70987,1.74362 -3.10885,3.28984 -3.10885,3.43606 0,0.30522 6.18261,7.684 7.31662,8.73218 0.41424,0.38289 1.11036,0.88414 1.54692,1.11388 0.75518,0.39742 0.60731,0.41708 -3.04271,0.40445 -2.80382,-0.01 -3.60851,-0.0792 -2.98959,-0.25818 0.46578,-0.1347 0.91713,-0.35859 1.003,-0.49753 0.27076,-0.43811 -0.57045,-1.71498 -3.07951,-4.6744 -1.3382,-1.57839 -2.4693,-2.91654 -2.51356,-2.97366 -0.0443,-0.0571 -0.26194,0.0468 -0.48374,0.23084 -0.32118,0.26656 -0.40244,0.9878 -0.39922,3.54343 0.002,1.76481 0.11534,3.38474 0.25136,3.59983 0.13602,0.2151 0.64021,0.53346 1.12043,0.70748 0.75326,0.27296 0.38279,0.31639 -2.69875,0.31639 -3.18364,0 -3.47123,-0.0362 -2.64584,-0.33277 z m 17.4625,-0.0726 c 0.50933,-0.22134 1.01352,-0.53905 1.12043,-0.70603 0.30972,-0.48371 0.24324,-14.9466 -0.0714,-15.53452 -0.15427,-0.28826 -0.55189,-0.51177 -0.91043,-0.51177 -0.35009,0 -0.71012,-0.11906 -0.80005,-0.26458 -0.10598,-0.17147 1.02918,-0.25828 3.22553,-0.24668 2.59736,0.0137 3.23453,0.0818 2.72759,0.29158 -1.2592,0.52099 -1.44397,0.6695 -1.62125,1.30305 -0.0979,0.35003 -0.17809,3.61298 -0.17809,7.251 0,3.63803 0.0801,6.90098 0.17809,7.25101 0.17728,0.63355 0.36205,0.78206 1.62125,1.30305 0.50316,0.20818 -0.16167,0.27279 -2.77812,0.27 -3.30956,-0.004 -3.40458,-0.0189 -2.51355,-0.40611 z m -17.02102,-18.09653 c -13.695909,-1.14379 -25.892161,-9.18385 -32.07617,-21.14537 -1.130599,-2.18689 -1.15969,-2.21193 -1.768869,-1.52296 -2.374935,2.68602 -3.828728,5.4059 -4.690383,8.77517 -0.458817,1.79408 -0.535223,2.93667 -0.535223,8.00365 v 5.9108 H 60.389976 50.203517 v -5.11342 c 0,-10.17946 0.907387,-14.85312 4.221152,-21.74179 1.884143,-3.91676 4.167172,-7.14977 7.321202,-10.36759 l 2.41423,-2.46305 -1.091314,-0.966 c -4.963057,-4.39313 -9.17431,-11.16699 -11.161471,-17.95336 -1.216378,-4.154062 -1.49298,-6.515503 -1.634789,-13.956766 l -0.134879,-7.077605 h 10.219393 10.219394 v 6.175386 c 0,7.090479 0.286927,8.781092 2.117693,12.477735 0.996569,2.01226 3.193283,4.8948 3.730207,4.8948 0.137838,0 0.371081,-0.31685 0.518317,-0.70411 0.147235,-0.38726 0.909081,-1.78625 1.692989,-3.10886 5.215234,-8.799137 13.871726,-15.341449 23.823089,-18.004758 9.26907,-2.480704 19.84167,-1.391264 28.15208,2.900897 13.61743,7.033122 21.72289,20.255241 21.72152,35.433411 -0.001,11.306 -4.17693,20.95935 -12.49814,28.89167 -6.32232,6.02684 -14.96094,9.94882 -23.22025,10.54211 -1.23693,0.0889 -2.72521,0.20109 -3.30729,0.2494 -0.58209,0.0483 -2.22889,-0.01 -3.65957,-0.12939 z M 64.840892,152.5524 c 0.297929,-7.74269 2.234102,-12.43379 7.252817,-17.57268 l 2.239368,-2.29298 -0.407909,-1.80806 c -0.22435,-0.99443 -0.553675,-3.11774 -0.731829,-4.71847 -0.178155,-1.60073 -0.361794,-2.95823 -0.408088,-3.01667 -0.04629,-0.0584 -0.770575,0.34737 -1.609514,0.9018 -7.292319,4.81927 -12.28358,11.91922 -14.506882,20.6357 -0.547256,2.14553 -0.704186,3.53388 -0.829916,7.34219 l -0.155049,4.69636 h 4.498327 4.498327 z m 52.566798,3.76649 c 1.76056,-0.21098 5.75978,-1.14848 6.45556,-1.51332 0.4676,-0.24519 0.49055,-0.49525 0.33103,-3.60649 -0.46803,-9.12795 -3.99665,-16.91469 -10.48881,-23.14603 -2.13919,-2.05324 -4.71394,-4.01659 -6.99339,-5.33275 -0.38607,-0.22292 -0.0827,-0.5067 1.91377,-1.79025 4.2767,-2.74952 8.5038,-7.20789 11.10236,-11.70979 2.90928,-5.04021 4.77744,-12.273012 4.50867,-17.455882 l -0.0823,-1.5875 -1.45521,-0.482484 c -1.63688,-0.542724 -4.5516,-1.143667 -6.37124,-1.313595 l -1.21187,-0.113173 0.005,3.60046 c 0.006,4.936961 -0.63056,7.705069 -2.74584,11.934834 -3.15772,6.31429 -9.14125,11.02692 -16.391817,12.91021 l -1.972088,0.51223 -0.335134,1.29243 c -0.423067,1.63151 -0.44263,5.98996 -0.03482,7.7567 0.294135,1.27426 0.367464,1.35916 1.389063,1.6083 3.796379,0.92583 7.009146,2.35454 9.844766,4.37796 3.47252,2.47789 7.01024,7.07453 8.64273,11.22967 1.24488,3.16856 1.58159,5.13569 1.5967,9.3282 0.0122,3.40275 0.067,3.8895 0.42608,3.78945 0.22661,-0.0631 1.06686,-0.19327 1.86722,-0.28918 z m -8.10576,-1.09144 c 0.25106,-1.83165 0.2045,-3.875 -0.13514,-5.93163 l -0.3034,-1.83716 -1.08567,-0.27 c -6.46341,-1.60745 -11.015606,-4.36544 -14.616033,-8.85525 -2.064612,-2.57462 -3.796318,-5.85585 -4.757513,-9.01451 -0.662196,-2.1761 -0.719661,-2.72411 -0.719661,-6.86286 0,-4.12892 0.0585,-4.69008 0.713134,-6.84033 1.672447,-5.49345 4.703541,-9.9403 8.963671,-13.1504 3.105232,-2.33987 5.411282,-3.42007 10.256782,-4.804502 1.16314,-0.332325 1.19768,-0.373782 1.49584,-1.795389 0.35237,-1.679985 0.43265,-4.395822 0.18365,-6.212472 l -0.1726,-1.259242 -1.35331,0.159054 c -2.02074,0.237498 -5.30982,1.124014 -7.6942,2.073839 -10.756643,4.284938 -18.465578,13.515182 -20.948515,25.082572 -0.673235,3.13643 -0.676162,10.33331 -0.0055,13.49375 2.257359,10.63745 9.389978,19.69104 19.080674,24.21953 2.459091,1.14914 6.245881,2.36876 8.575011,2.76178 2.35027,0.39659 2.33656,0.40179 2.52277,-0.95678 z m 22.749,-4.51977 c 2.41895,-1.59637 7.34184,-6.52429 8.97453,-8.98371 0.69326,-1.0443 1.78106,-2.9493 2.41734,-4.23333 1.53578,-3.09927 2.03249,-4.59371 3.10633,-9.34605 0.50684,-2.243 0.41685,-9.44653 -0.15204,-12.17084 -1.49524,-7.16056 -4.70824,-13.0218 -9.89979,-18.059456 -2.44506,-2.372571 -5.87984,-4.959291 -6.58522,-4.959291 -0.22738,0 -0.33356,0.457115 -0.33356,1.436063 0,1.72316 -0.4264,4.931629 -0.89601,6.742024 l -0.34072,1.31348 1.95992,1.93495 c 3.96071,3.91024 6.36866,8.54023 7.34078,14.11479 0.50297,2.88424 0.506,4.63443 0.0133,7.6639 -0.94251,5.79493 -3.44495,10.59969 -7.59324,14.5792 l -1.67463,1.60649 0.45791,2.09361 c 0.25185,1.15149 0.53783,3.31401 0.63552,4.8056 0.0977,1.49159 0.28983,2.71198 0.427,2.71198 0.13716,0 1.10134,-0.56224 2.14261,-1.24941 z M 103.50712,138.7105 c -1.14674,-1.17064 -4.727741,-3.68675 -5.247097,-3.68675 -0.823828,0 2.411317,2.87548 4.860167,4.31984 1.7549,1.03506 1.85714,0.86777 0.38693,-0.63309 z m 25.40441,-5.53883 c 1.24905,-1.87949 2.24297,-4.13592 2.80541,-6.36896 0.51303,-2.03685 0.44408,-7.0907 -0.12607,-9.24146 -0.66952,-2.52555 -2.38788,-5.77983 -3.99356,-7.56309 l -1.40918,-1.56503 -0.29885,0.77025 c -1.1283,2.90812 -4.99554,8.26463 -8.31733,11.52035 l -1.74192,1.70727 1.78102,1.74179 c 3.30884,3.23594 6.11993,7.02936 7.89233,10.65028 l 0.74359,1.5191 0.76082,-0.72535 c 0.41846,-0.39895 1.27514,-1.49927 1.90374,-2.44515 z M 73.192826,118.68573 c 0.186007,-1.70987 0.513005,-3.86832 0.726664,-4.79657 l 0.388472,-1.68771 -2.084887,-2.14874 c -3.448691,-3.55433 -5.329029,-6.75765 -6.580903,-11.211157 -0.51104,-1.81801 -0.684442,-3.20884 -0.808127,-6.481863 l -0.157472,-4.167187 h -4.458404 -4.458401 v 3.288146 c 0,10.027511 3.316533,18.199391 10.144604,24.996141 1.824707,1.81633 6.247387,5.2663 6.803351,5.30703 0.0808,0.006 0.299098,-1.38822 0.485103,-3.09809 z m 29.828614,-12.11159 c 1.0002,-0.92825 1.69129,-1.69338 1.53577,-1.70031 -0.84514,-0.0376 -6.464107,4.11804 -6.464107,4.78069 0,0.53506 3.162637,-1.4417 4.928337,-3.08038 z"
           id="path23" />
      </g>
      <text
         xml:space="preserve"
         style="font-style:normal;font-weight:normal;font-size:10.5833px;line-height:1.25;font-family:sans-serif;fill:#212529;fill-opacity:1;stroke:none;stroke-width:0.264583"
         x="115.78366"
         y="172.48454"
         id="text1880"><tspan
           sodipodi:role="line"
           id="tspan1878"
           style="stroke-width:0.264583;fill:#212529;fill-opacity:1"
           x="115.78366"
           y="172.48454">TM</tspan></text>
    </g>
  </g>
</svg>
